# xmcd
#
# Track frame offsets: 
#        150
#        12225
#        22316
#        35551
#        49174
#        63899
#        76480
#        85399
#        98242
#        132519
#        142686
#        156524
#        170496
#        182934
#        200702
#        213479
#
# Disc length: 3004 seconds
#
# Revision: 0
# Processed by: cddbd v1.5.2PL0 Copyright (c) Steve Scherf et al.
# Submitted via: ExactAudioCopy v0.99pb3
#
DISCID=e90bba10
DTITLE=Various Artist - Blues Legends
DYEAR=2006
DGENRE=Blues
TTITLE0=Billy Boy Arnold  - I Wish You Would
TTITLE1=Canned Heat - Rolloing and Tumbling Part 1
TTITLE2=Howlin Wolf - California Blues
TTITLE3=Joe Turner - S. . Blues Part 1
TTITLE4=Lightnin' Hopkins - Big Car Blues
TTITLE5=Memphis Slim - Messin' Around
TTITLE6=Ray Charles - All To Myself Alone
TTITLE7=Jimmy Reed - You Upset My Mind
TTITLE8=B.B King - Outside Help
TTITLE9=Ike and Tina Turner - Suffering The Blues
TTITLE10=John Lee Hooker - Hobo Blues
TTITLE11=Bessie Smith - House Rent Blues
TTITLE12=Elmore James - Dust Me Broom
TTITLE13=Mike Bloomfield - Hully Gully
TTITLE14=Big Joe Williams - Goin' Back
TTITLE15=Muddy Waters - Long Distance Call
EXTD=
EXTT0=
EXTT1=
EXTT2=
EXTT3=
EXTT4=
EXTT5=
EXTT6=
EXTT7=
EXTT8=
EXTT9=
EXTT10=
EXTT11=
EXTT12=
EXTT13=
EXTT14=
EXTT15=
PLAYORDER=
